<svg width="53" height="52" viewBox="0 0 53 52" fill="none" xmlns="http://www.w3.org/2000/svg">
<g clip-path="url(#clip0_2699_6325)">
<path d="M0.5 14.002V38.0108C0.5 45.7457 6.76706 52.0128 14.502 52.0128H38.5108C46.2457 52.0128 52.5128 45.7457 52.5128 38.0108V14.002C52.5 6.26706 46.2329 0 38.498 0H14.502C6.76706 0 0.5 6.26706 0.5 14.002Z" fill="#38D2A6"/>
<path d="M25.5685 44.5844H27.4065C28.3255 44.5844 29.0786 43.8313 29.0786 42.9123V41.0743C29.0786 40.9595 29.0659 40.8446 29.0403 40.7297C29.0403 40.7297 28.1341 35.254 28.1213 35.254C28.0064 34.6669 27.4959 34.2329 26.8832 34.2329H26.0919C25.4792 34.2329 24.9559 34.6796 24.8538 35.254C24.8538 35.254 23.9475 40.7297 23.9348 40.7297C23.9092 40.8446 23.8965 40.9467 23.8965 41.0743V42.9123C23.8965 43.8313 24.6368 44.5844 25.5685 44.5844Z" fill="white"/>
<path d="M21.0244 33.8243C21.3945 33.2882 21.4073 32.5989 20.935 32.1267L20.3734 31.5651C19.9139 31.1056 19.2247 31.1183 18.6758 31.4757L13.3278 35.0241C12.881 35.3176 12.5747 35.8282 12.5747 36.4153V38.2533C12.5747 39.1723 13.3278 39.9254 14.2468 39.9254H16.0848C16.6719 39.9254 17.1825 39.6318 17.476 39.1723C17.476 39.1723 21.0116 33.837 21.0244 33.8243Z" fill="white"/>
<path d="M27.4446 7.42871H25.6066C24.6876 7.42871 23.9346 8.18178 23.9346 9.10078V10.9388C23.9346 11.0537 23.9473 11.1685 23.9729 11.2834C23.9729 11.2834 24.8791 16.7591 24.8919 16.7591C25.0067 17.3462 25.5173 17.7802 26.13 17.7802H26.9213C27.534 17.7802 28.0573 17.3335 28.1594 16.7591C28.1594 16.7591 29.0656 11.2834 29.0784 11.2834C29.1039 11.1685 29.1167 11.0664 29.1167 10.9388V9.10078C29.1039 8.16902 28.3636 7.42871 27.4446 7.42871Z" fill="white"/>
<path d="M31.9887 18.1758C31.6185 18.7119 31.6058 19.4012 32.078 19.8734L32.6396 20.435C33.0991 20.8945 33.7884 20.8818 34.3372 20.5244L39.6853 16.976C40.132 16.6825 40.4384 16.1719 40.4384 15.5848V13.7468C40.4384 12.8278 39.6853 12.0747 38.7663 12.0747H36.9283C36.3412 12.0747 35.8306 12.3683 35.537 12.8278C35.5243 12.8278 31.9887 18.1758 31.9887 18.1758Z" fill="white"/>
<path d="M39.7364 35.0625C39.7236 35.0498 27.2533 24.9025 26.9214 24.4813C24.9941 22.1072 17.4507 12.7896 17.4507 12.7768C17.1443 12.4066 16.6721 12.1514 16.1487 12.1514H14.3107C13.3917 12.1514 12.6387 12.9044 12.6387 13.8234V15.6614C12.6387 16.1848 12.8812 16.6442 13.2641 16.9633C13.2769 16.9761 25.7472 27.1234 26.079 27.5446C28.0064 29.9187 35.5498 39.2363 35.5498 39.2491C35.8562 39.6192 36.3284 39.8745 36.8517 39.8745H38.6897C39.6087 39.8745 40.3618 39.1214 40.3618 38.2024V36.3644C40.3618 35.8283 40.1193 35.3688 39.7364 35.0625Z" fill="white"/>
</g>
<defs>
<clipPath id="clip0_2699_6325">
<rect width="52" height="52" fill="white" transform="translate(0.5)"/>
</clipPath>
</defs>
</svg>
